<?xml version="1.0" encoding="UTF-8"?>
<svg width="40px" height="40px" viewBox="0 0 40 40" version="1.1" xmlns="http://www.w3.org/2000/svg" xmlns:xlink="http://www.w3.org/1999/xlink">
    <!-- Generator: sketchtool 52 (66869) - http://www.bohemiancoding.com/sketch -->
    <title>5F85D9E6-731E-4D45-8000-72802DD3AE6D</title>
    <desc>Created with sketchtool.</desc>
    <g id="Page-1" stroke="none" stroke-width="1" fill="none" fill-rule="evenodd">
        <g id="Hermes-Dashboard" transform="translate(-1142.000000, -556.000000)">
            <g id="Right" transform="translate(80.000000, 0.000000)">
                <g id="Popular-Topics" transform="translate(1032.000000, 51.000000)">
                    <g id="List-of-Topics" transform="translate(30.000000, 50.000000)">
                        <g id="Topic" transform="translate(0.000000, 455.000000)">
                            <g id="Icon">
                                <rect id="Bg" fill="#29CB97" x="0" y="0" width="40" height="40" rx="5"></rect>
                                <g id="Smartwatch-Icon" transform="translate(14.000000, 10.000000)" fill="#FFFFFF">
                                    <path d="M10.323871,14.2693878 C10.323871,14.5020408 10.1419355,14.6938776 9.92129032,14.6938776 L2.21032258,14.6938776 C1.98580645,14.6938776 1.80774194,14.5020408 1.80774194,14.2693878 L1.80774194,5.32244898 C1.80774194,5.08979592 1.98580645,4.89795918 2.21032258,4.89795918 L9.92129032,4.89795918 C10.1419355,4.89795918 10.323871,5.08979592 10.323871,5.32244898 L10.323871,14.2693878 Z M7.95096774,17.6612245 C6.68516129,18.0612245 5.44258065,18.0612245 4.17677419,17.6612245 L3.80903226,16.3265306 L8.32258065,16.3265306 L7.95096774,17.6612245 Z M4.17677419,1.93469388 C5.44258065,1.53061224 6.68516129,1.53061224 7.95096774,1.93469388 L8.32258065,3.26530612 L3.80903226,3.26530612 L4.17677419,1.93469388 Z M9.93677419,3.26938776 L9.32516129,1.06530612 C9.25548387,0.812244898 9.07354839,0.612244898 8.84129032,0.526530612 C6.99870968,-0.171428571 5.12903226,-0.171428571 3.28645161,0.526530612 C3.05419355,0.612244898 2.87612903,0.812244898 2.80645161,1.06530612 L2.19483871,3.26938776 C1.12645161,3.27755102 0.259354839,4.19591837 0.259354839,5.32244898 L0.259354839,14.2693878 C0.259354839,15.4 1.12645161,16.3142857 2.19483871,16.3265306 L2.80645161,18.5306122 C2.87612903,18.7795918 3.05419355,18.9795918 3.28645161,19.0693878 C4.20774194,19.4163265 5.13677419,19.5918367 6.06580645,19.5918367 C6.99096774,19.5918367 7.92,19.4163265 8.84129032,19.0693878 C9.07354839,18.9795918 9.25548387,18.7795918 9.32516129,18.5306122 L9.93677419,16.3265306 C11.0051613,16.3142857 11.8722581,15.4 11.8722581,14.2693878 L11.8722581,5.32244898 C11.8722581,4.19591837 11.0051613,3.27755102 9.93677419,3.26938776 Z" id="Fill-122"></path>
                                    <path d="M7.96645161,9.18367347 L6.64645161,9.18367347 L6.64645161,6.86938776 C6.64645161,6.53469388 6.38709677,6.25714286 6.06580645,6.25714286 C5.74451613,6.25714286 5.48516129,6.53469388 5.48516129,6.86938776 L5.48516129,9.79591837 C5.48516129,10.1346939 5.74451613,10.4081633 6.06580645,10.4081633 L7.96645161,10.4081633 C8.28774194,10.4081633 8.54709677,10.1346939 8.54709677,9.79591837 C8.54709677,9.45714286 8.28774194,9.18367347 7.96645161,9.18367347" id="Fill-123"></path>
                                </g>
                            </g>
                        </g>
                    </g>
                </g>
            </g>
        </g>
    </g>
</svg>