<?xml version="1.0" encoding="UTF-8"?>
<svg width="40px" height="40px" viewBox="0 0 40 40" version="1.1" xmlns="http://www.w3.org/2000/svg" xmlns:xlink="http://www.w3.org/1999/xlink">
    <!-- Generator: sketchtool 52 (66869) - http://www.bohemiancoding.com/sketch -->
    <title>3F2E330C-D4A5-4B13-AE17-316DAC6BF5C9</title>
    <desc>Created with sketchtool.</desc>
    <g id="Page-1" stroke="none" stroke-width="1" fill="none" fill-rule="evenodd">
        <g id="Hermes-Dashboard" transform="translate(-1142.000000, -611.000000)">
            <g id="Right" transform="translate(80.000000, 0.000000)">
                <g id="Popular-Topics" transform="translate(1032.000000, 51.000000)">
                    <g id="List-of-Topics" transform="translate(30.000000, 50.000000)">
                        <g id="Topic" transform="translate(0.000000, 510.000000)">
                            <g id="Icon">
                                <rect id="Bg" fill="#FEC400" x="0" y="0" width="40" height="40" rx="5"></rect>
                                <g id="Games-Icon" transform="translate(10.000000, 14.000000)" fill="#FFFFFF">
                                    <path d="M16.7069388,11.4163636 C16.7057143,11.4163636 16.704898,11.4163636 16.7036735,11.4163636 L16.6567347,11.4163636 C16.642449,11.420303 15.5587755,11.4242424 14.7342857,10.4354545 C14.5457143,10.2030303 12.8432653,8.19 11.0836735,8.19 L9.04693878,8.19 C7.28734694,8.19 5.58489796,10.2030303 5.4,10.4275758 C4.57714286,11.4163636 3.50857143,11.420303 3.47387755,11.4163636 L3.42693878,11.4163636 C3.42816327,11.4281818 2.77346939,11.4163636 2.33469388,11.0066667 C2.04938776,10.7387879 1.90163265,10.3290909 1.89510204,9.78545455 C1.88204082,8.70212121 2.32653061,6.44878788 3.14693878,3.4430303 C3.42612245,2.42272727 4.38612245,1.70969697 5.48163265,1.70969697 L14.6489796,1.70969697 C15.7444898,1.70969697 16.704898,2.42272727 16.9836735,3.4430303 C17.8040816,6.44878788 18.2485714,8.70212121 18.2355102,9.78545455 C18.2171429,11.2981818 17.0591837,11.4163636 16.7069388,11.4163636 Z M18.562449,3.04121212 C18.095102,1.32757576 16.4857143,0.133939394 14.6489796,0.133939394 L5.48163265,0.133939394 C3.64530612,0.133939394 2.03591837,1.32757576 1.56816327,3.04121212 C0.962040816,5.2630303 0.243673469,8.23727273 0.26244898,9.80515152 C0.274285714,10.7860606 0.589795918,11.57 1.2,12.1372727 C2.06612245,12.9448485 3.19346939,12.9921212 3.43102041,12.9921212 C3.44081633,12.9921212 3.44816327,12.9921212 3.45714286,12.9921212 C3.74571429,12.9921212 5.41755102,12.9212121 6.6755102,11.4124242 C7.23959184,10.7309091 8.34816327,9.76575758 9.04693878,9.76575758 L11.0836735,9.76575758 C11.7828571,9.76575758 12.8910204,10.7309091 13.4583673,11.4163636 C14.7134694,12.9251515 16.384898,12.9921212 16.6734694,12.9921212 C16.6828571,12.9921212 16.6902041,12.9921212 16.7,12.9921212 C16.9371429,12.9921212 18.064898,12.9448485 18.9302041,12.1372727 C19.5408163,11.57 19.8559184,10.7860606 19.8681633,9.80515152 C19.8873469,8.23727273 19.1685714,5.2630303 18.562449,3.04121212 Z" id="Fill-134"></path>
                                    <path d="M7.61755102,4.34515152 L6.83959184,4.34515152 L6.83959184,3.59666667 C6.83959184,3.26969697 6.56530612,3.00575758 6.22734694,3.00575758 C5.88897959,3.00575758 5.61510204,3.26969697 5.61510204,3.59666667 L5.61510204,4.34515152 L4.83714286,4.34515152 C4.49877551,4.34515152 4.22489796,4.60909091 4.22489796,4.93606061 C4.22489796,5.2630303 4.49877551,5.5269697 4.83714286,5.5269697 L5.61510204,5.5269697 L5.61510204,6.27939394 C5.61510204,6.60636364 5.88897959,6.87030303 6.22734694,6.87030303 C6.56530612,6.87030303 6.83959184,6.60636364 6.83959184,6.27939394 L6.83959184,5.5269697 L7.61755102,5.5269697 C7.95591837,5.5269697 8.22979592,5.2630303 8.22979592,4.93606061 C8.22979592,4.60909091 7.95591837,4.34515152 7.61755102,4.34515152" id="Fill-135"></path>
                                    <path d="M13.5742857,3.00575758 C13.2359184,3.00575758 12.9620408,3.26969697 12.9620408,3.59666667 C12.9620408,3.91969697 13.2359184,4.18757576 13.5742857,4.18757576 C13.9122449,4.18757576 14.1865306,3.91969697 14.1865306,3.59666667 C14.1865306,3.26969697 13.9122449,3.00575758 13.5742857,3.00575758" id="Fill-136"></path>
                                    <path d="M13.5742857,5.68848485 C13.2359184,5.68848485 12.9620408,5.95242424 12.9620408,6.27939394 C12.9620408,6.60636364 13.2359184,6.87030303 13.5742857,6.87030303 C13.9122449,6.87030303 14.1865306,6.60636364 14.1865306,6.27939394 C14.1865306,5.95242424 13.9122449,5.68848485 13.5742857,5.68848485" id="Fill-137"></path>
                                    <path d="M12.1840816,4.34515152 C11.8457143,4.34515152 11.5718367,4.60909091 11.5718367,4.93606061 C11.5718367,5.2630303 11.8457143,5.5269697 12.1840816,5.5269697 C12.5220408,5.5269697 12.7963265,5.2630303 12.7963265,4.93606061 C12.7963265,4.60909091 12.5220408,4.34515152 12.1840816,4.34515152" id="Fill-138"></path>
                                    <path d="M14.9644898,4.34515152 C14.6261224,4.34515152 14.3522449,4.60909091 14.3522449,4.93606061 C14.3522449,5.2630303 14.6261224,5.5269697 14.9644898,5.5269697 C15.302449,5.5269697 15.5767347,5.2630303 15.5767347,4.93606061 C15.5767347,4.60909091 15.302449,4.34515152 14.9644898,4.34515152" id="Fill-139"></path>
                                </g>
                            </g>
                        </g>
                    </g>
                </g>
            </g>
        </g>
    </g>
</svg>