<?xml version="1.0" encoding="UTF-8"?>
<svg width="21px" height="16px" viewBox="0 0 21 16" version="1.1" xmlns="http://www.w3.org/2000/svg" xmlns:xlink="http://www.w3.org/1999/xlink">
    <!-- Generator: sketchtool 52 (66869) - http://www.bohemiancoding.com/sketch -->
    <title>8CDA673E-AA65-42FF-ADD5-7E7CF016F164</title>
    <desc>Created with sketchtool.</desc>
    <g id="Page-1" stroke="none" stroke-width="1" fill="none" fill-rule="evenodd">
        <g id="Hermes-Dashboard" transform="translate(-627.000000, -58.000000)" fill="#B8C5D3" fill-rule="nonzero" stroke="#B8C5D3" stroke-width="0.5">
            <g id="Right" transform="translate(80.000000, 0.000000)">
                <g id="Top-HEading">
                    <g id="folder" transform="translate(548.000000, 59.000000)">
                        <path d="M18.8170641,7.30212454 C18.671641,6.99749817 18.4493132,6.764 18.1516117,6.60197802 C17.8535275,6.43964286 17.5256905,6.35856227 17.1680659,6.35856227 L15.2604451,6.35856227 L15.2604451,4.76886081 C15.2604451,4.15950366 15.0418059,3.6362381 14.6047363,3.1990641 C14.1674579,2.76192491 13.6441575,2.54339011 13.0349396,2.54339011 L7.63020513,2.54339011 L7.63020513,2.2254707 C7.63020513,1.61611355 7.41156593,1.09284799 6.97453114,0.655813187 C6.53732234,0.218673993 6.01409158,0 5.40473443,0 L2.2254707,0 C1.61611355,0 1.09284799,0.218639194 0.655673993,0.655813187 C0.218534799,1.09288278 0,1.61614835 0,2.22550549 L0,11.7633663 C0,12.372619 0.218534799,12.8958846 0.655673993,13.3329194 C1.09284799,13.770163 1.61611355,13.988837 2.2254707,13.988837 L13.0351484,13.988837 C13.4787601,13.988837 13.9423462,13.8745238 14.4260806,13.6458974 C14.9096062,13.4175147 15.2935385,13.1276081 15.5783645,12.7765952 L18.5093407,9.17014469 C18.813967,8.78607326 18.966141,8.38881319 18.966141,7.97794689 C18.9662802,7.73943773 18.9165879,7.5144652 18.8170641,7.30212454 Z M1.27178205,2.22564469 C1.27178205,1.96079304 1.36445055,1.73554212 1.54992674,1.55006593 C1.73526374,1.36469414 1.96051465,1.27192125 2.22550549,1.27192125 L5.40487363,1.27192125 C5.66986447,1.27192125 5.89497619,1.36458974 6.08045238,1.55006593 C6.26582418,1.73554212 6.35859707,1.96079304 6.35859707,2.22564469 L6.35859707,2.86155311 C6.35859707,3.12657875 6.45140476,3.35176007 6.63677656,3.53713187 C6.82214835,3.72250366 7.04732967,3.81531136 7.31228571,3.81531136 L13.0349744,3.81531136 C13.299826,3.81531136 13.5252509,3.90808425 13.7106923,4.09345604 C13.8959597,4.27879304 13.9887326,4.50404396 13.9887326,4.7690348 L13.9887326,6.35870147 L6.35856227,6.35870147 C5.90823443,6.35870147 5.44443956,6.47297985 4.96756044,6.70150183 C4.49061172,6.93002381 4.10650549,7.21975641 3.81503297,7.57097802 L1.27178205,10.7004451 L1.27178205,2.22564469 Z M17.5156685,8.36560256 L14.5947143,11.9720183 C14.4293168,12.1772949 14.1941136,12.3528187 13.8892784,12.4983462 C13.584652,12.6441172 13.299826,12.7169853 13.0349396,12.7169853 L2.2254707,12.7169853 C1.87442308,12.7169853 1.69893407,12.6010018 1.69893407,12.3692784 C1.69893407,12.2632821 1.75854396,12.1308388 1.87779853,11.9716355 L4.79871795,8.36535897 C4.9709359,8.15994322 5.20760073,7.98619414 5.50906044,7.84376374 C5.81034615,7.70133333 6.09353663,7.63010073 6.35852747,7.63010073 L17.1680311,7.63010073 C17.5190788,7.63010073 17.6944982,7.74608425 17.6944982,7.97784249 C17.694533,8.09076374 17.6351319,8.2198315 17.5156685,8.36560256 Z" id="Shape"></path>
                    </g>
                </g>
            </g>
        </g>
    </g>
</svg>