<?xml version="1.0" encoding="UTF-8"?>
<svg width="40px" height="40px" viewBox="0 0 40 40" version="1.1" xmlns="http://www.w3.org/2000/svg" xmlns:xlink="http://www.w3.org/1999/xlink">
    <!-- Generator: sketchtool 52 (66869) - http://www.bohemiancoding.com/sketch -->
    <title>69DE6680-92DC-4800-A993-6A0BD41A4FCE</title>
    <desc>Created with sketchtool.</desc>
    <g id="Page-1" stroke="none" stroke-width="1" fill="none" fill-rule="evenodd">
        <g id="Hermes-Dashboard" transform="translate(-1142.000000, -721.000000)">
            <g id="Right" transform="translate(80.000000, 0.000000)">
                <g id="Popular-Topics" transform="translate(1032.000000, 51.000000)">
                    <g id="List-of-Topics" transform="translate(30.000000, 50.000000)">
                        <g id="Topic" transform="translate(0.000000, 620.000000)">
                            <g id="Icon">
                                <rect id="Bg" fill="#29CB97" x="0" y="0" width="40" height="40" rx="5"></rect>
                                <g id="Finance-Icon" transform="translate(10.000000, 12.000000)" fill="#FFFFFF">
                                    <path d="M18.1183673,14.1061224 L6.73469388,14.1061224 C6.67346939,14.1061224 6.6244898,14.0571429 6.6244898,13.9959184 L6.6244898,9.4244898 L18.2326531,9.4244898 L18.2326531,13.9959184 C18.2326531,14.0571429 18.1795918,14.1061224 18.1183673,14.1061224 Z M4.43673469,12.8204082 L1.94285714,5.7755102 C1.93469388,5.74693878 1.93469388,5.72244898 1.94693878,5.69387755 C1.95510204,5.67346939 1.9755102,5.64897959 2.0122449,5.63673469 L12.7387755,1.83673469 C12.8040816,1.81632653 12.8653061,1.84489796 12.8857143,1.90612245 L13.9020408,4.77959184 L6.73469388,4.77959184 C5.7755102,4.77959184 4.99183673,5.55918367 4.99183673,6.52244898 L4.99183673,12.7428571 L4.57959184,12.8897959 C4.52244898,12.9061224 4.45714286,12.877551 4.43673469,12.8204082 Z M18.2326531,6.52244898 L18.2326531,7.38367347 L6.6244898,7.38367347 L6.6244898,6.52244898 C6.6244898,6.46122449 6.67346939,6.4122449 6.73469388,6.4122449 L18.1183673,6.4122449 C18.1795918,6.4122449 18.2326531,6.46122449 18.2326531,6.52244898 Z M18.1183673,4.77959184 L15.6326531,4.77959184 L14.4244898,1.36326531 C14.1061224,0.457142857 13.1102041,-0.0204081633 12.2,0.297959184 L1.46938776,4.09795918 C1.02857143,4.25306122 0.673469388,4.57142857 0.473469388,4.99183673 C0.273469388,5.4122449 0.248979592,5.88571429 0.404081633,6.32244898 L2.89795918,13.3673469 C3.15510204,14.0816327 3.82857143,14.5265306 4.54285714,14.5265306 C4.71428571,14.5265306 4.88571429,14.4979592 5.05714286,14.444898 C5.25714286,15.1877551 5.93061224,15.7387755 6.73469388,15.7387755 L18.1183673,15.7387755 C19.0816327,15.7387755 19.8653061,14.955102 19.8653061,13.9959184 L19.8653061,6.52244898 C19.8653061,5.55918367 19.0816327,4.77959184 18.1183673,4.77959184 Z" id="Fill-274"></path>
                                    <path d="M10.7714286,10.4734694 L8.28979592,10.4734694 C7.95102041,10.4734694 7.67755102,10.7469388 7.67755102,11.0857143 C7.67755102,11.4244898 7.95102041,11.6979592 8.28979592,11.6979592 L10.7714286,11.6979592 C11.1102041,11.6979592 11.3836735,11.4244898 11.3836735,11.0857143 C11.3836735,10.7469388 11.1102041,10.4734694 10.7714286,10.4734694" id="Fill-275"></path>
                                </g>
                            </g>
                        </g>
                    </g>
                </g>
            </g>
        </g>
    </g>
</svg>