<?xml version="1.0" encoding="UTF-8"?>
<svg width="30px" height="30px" viewBox="0 0 30 30" version="1.1" xmlns="http://www.w3.org/2000/svg" xmlns:xlink="http://www.w3.org/1999/xlink">
    <!-- Generator: sketchtool 52 (66869) - http://www.bohemiancoding.com/sketch -->
    <title>96E6481E-B44B-4FAC-B3D2-C6B29C38F207</title>
    <desc>Created with sketchtool.</desc>
    <g id="Page-1" stroke="none" stroke-width="1" fill="none" fill-rule="evenodd">
        <g id="Hermes-Dashboard" transform="translate(-888.000000, -48.000000)">
            <g id="Right" transform="translate(80.000000, 0.000000)">
                <g id="Top-HEading">
                    <g id="Group-4" transform="translate(808.000000, 48.000000)">
                        <rect id="Bg" fill="#29CB97" x="0" y="0" width="30" height="30" rx="15"></rect>
                        <path d="M20.1330612,14 L16.0613878,14 L16.0613878,9.845 C16.0613878,9.29 15.6225306,8.845 15.0817959,8.845 C14.5410612,8.845 14.1022041,9.29 14.1022041,9.845 L14.1022041,14 L10.0305306,14 C9.48930612,14 9.05093878,14.45 9.05093878,15 C9.05093878,15.555 9.48930612,16 10.0305306,16 L14.1022041,16 L14.1022041,20.155 C14.1022041,20.71 14.5410612,21.155 15.0817959,21.155 C15.6225306,21.155 16.0613878,20.71 16.0613878,20.155 L16.0613878,16 L20.1330612,16 C20.6742857,16 21.1126531,15.555 21.1126531,15 C21.1126531,14.45 20.6742857,14 20.1330612,14" id="Fill-26" fill="#FFFFFF"></path>
                    </g>
                </g>
            </g>
        </g>
    </g>
</svg>