<?xml version="1.0" encoding="UTF-8"?>
<svg width="40px" height="40px" viewBox="0 0 40 40" version="1.1" xmlns="http://www.w3.org/2000/svg" xmlns:xlink="http://www.w3.org/1999/xlink">
    <!-- Generator: sketchtool 52 (66869) - http://www.bohemiancoding.com/sketch -->
    <title>729F8171-4BB4-42EB-8A93-8D07A7811ABF</title>
    <desc>Created with sketchtool.</desc>
    <g id="Page-1" stroke="none" stroke-width="1" fill="none" fill-rule="evenodd">
        <g id="Hermes-Dashboard" transform="translate(-1142.000000, -501.000000)">
            <g id="Right" transform="translate(80.000000, 0.000000)">
                <g id="Popular-Topics" transform="translate(1032.000000, 51.000000)">
                    <g id="List-of-Topics" transform="translate(30.000000, 50.000000)">
                        <g id="Topic">
                            <g id="Icon" transform="translate(0.000000, 400.000000)">
                                <rect id="Bg" fill="#B558F6" x="0" y="0" width="40" height="40" rx="5"></rect>
                                <g id="Music-Icon" transform="translate(12.000000, 12.000000)" fill="#FFFFFF">
                                    <path d="M15.5363478,13.3321739 C15.5363478,13.9095652 15.0681739,14.3756522 14.4928696,14.3756522 C13.9175652,14.3756522 13.4493913,13.9095652 13.4493913,13.3321739 L13.4493913,10.8973913 C13.4493913,10.3234783 13.9175652,9.85391304 14.4928696,9.85391304 C15.0681739,9.85391304 15.5363478,10.3234783 15.5363478,10.8973913 L15.5363478,13.3321739 Z M2.66678261,9.85391304 C3.24208696,9.85391304 3.71026087,10.3234783 3.71026087,10.8973913 L3.71026087,13.3321739 C3.71026087,13.9095652 3.24208696,14.3756522 2.66678261,14.3756522 C2.09147826,14.3756522 1.62330435,13.9095652 1.62330435,13.3321739 L1.62330435,10.8973913 C1.62330435,10.3234783 2.09147826,9.85391304 2.66678261,9.85391304 Z M8.57982609,0 C3.97669565,0 0.232,3.74608696 0.232,8.34782609 L0.232,13.3321739 C0.232,14.6747826 1.32417391,15.7669565 2.66678261,15.7669565 C4.0093913,15.7669565 5.10156522,14.6747826 5.10156522,13.3321739 L5.10156522,10.8973913 C5.10156522,9.55826087 4.0093913,8.4626087 2.66678261,8.4626087 C2.29286957,8.4626087 1.94017391,8.55304348 1.62330435,8.7026087 L1.62330435,8.34782609 C1.62330435,4.51130435 4.744,1.39130435 8.57982609,1.39130435 C12.4156522,1.39130435 15.5363478,4.51130435 15.5363478,8.34782609 L15.5363478,8.7026087 C15.2194783,8.55304348 14.8667826,8.4626087 14.4928696,8.4626087 C13.1502609,8.4626087 12.058087,9.55826087 12.058087,10.8973913 L12.058087,13.3321739 C12.058087,14.6747826 13.1502609,15.7669565 14.4928696,15.7669565 C15.8354783,15.7669565 16.9276522,14.6747826 16.9276522,13.3321739 L16.9276522,8.34782609 C16.9276522,3.74608696 13.1829565,0 8.57982609,0 Z" id="Fill-157"></path>
                                </g>
                            </g>
                        </g>
                    </g>
                </g>
            </g>
        </g>
    </g>
</svg>