<?xml version="1.0" encoding="UTF-8"?>
<svg width="40px" height="40px" viewBox="0 0 40 40" version="1.1" xmlns="http://www.w3.org/2000/svg" xmlns:xlink="http://www.w3.org/1999/xlink">
    <!-- Generator: sketchtool 52 (66869) - http://www.bohemiancoding.com/sketch -->
    <title>3EAF4B82-3A7F-43F7-B63E-4A5A90497A74</title>
    <desc>Created with sketchtool.</desc>
    <g id="Page-1" stroke="none" stroke-width="1" fill="none" fill-rule="evenodd">
        <g id="Hermes-Dashboard" transform="translate(-1142.000000, -666.000000)">
            <g id="Right" transform="translate(80.000000, 0.000000)">
                <g id="Popular-Topics" transform="translate(1032.000000, 51.000000)">
                    <g id="List-of-Topics" transform="translate(30.000000, 50.000000)">
                        <g id="Topic" transform="translate(0.000000, 565.000000)">
                            <g id="Icon">
                                <rect id="Bg" fill="#4072EE" x="0" y="0" width="40" height="40" rx="5"></rect>
                                <g id="Photography-Icon" transform="translate(11.000000, 13.000000)" fill="#FFFFFF">
                                    <path d="M1.71440816,12.5641026 L16.4082857,12.5641026 L16.4082857,3.58974359 L13.1021633,3.58974359 C12.8240816,3.58974359 12.5695102,3.43538462 12.4449796,3.19487179 L11.5460816,1.43589744 L6.57661224,1.43589744 L5.67771429,3.19487179 C5.55318367,3.43538462 5.29861224,3.58974359 5.02053061,3.58974359 L1.71440816,3.58974359 L1.71440816,12.5641026 Z M17.1429796,14 L0.979714286,14 C0.574163265,14 0.245020408,13.6805128 0.245020408,13.2820513 L0.245020408,2.87179487 C0.245020408,2.47692308 0.574163265,2.15384615 0.979714286,2.15384615 L4.5664898,2.15384615 L5.46538776,0.398461538 C5.58991837,0.154358974 5.8444898,0 6.12257143,0 L12.0001224,0 C12.2782041,0 12.5327755,0.154358974 12.6573061,0.398461538 L13.5562041,2.15384615 L17.1429796,2.15384615 C17.5485306,2.15384615 17.8776735,2.47692308 17.8776735,2.87179487 L17.8776735,13.2820513 C17.8776735,13.6805128 17.5485306,14 17.1429796,14 Z" id="Fill-159"></path>
                                    <path d="M9.06134694,5.20512821 C7.74477551,5.20512821 6.67359184,6.25333333 6.67359184,7.53846154 C6.67359184,8.82717949 7.74477551,9.87179487 9.06134694,9.87179487 C10.3779184,9.87179487 11.449102,8.82717949 11.449102,7.53846154 C11.449102,6.25333333 10.3779184,5.20512821 9.06134694,5.20512821 Z M9.06134694,11.3076923 C6.93440816,11.3076923 5.20420408,9.61692308 5.20420408,7.53846154 C5.20420408,5.46 6.93440816,3.76923077 9.06134694,3.76923077 C11.1879184,3.76923077 12.9184898,5.46 12.9184898,7.53846154 C12.9184898,9.61692308 11.1879184,11.3076923 9.06134694,11.3076923 Z" id="Fill-160"></path>
                                </g>
                            </g>
                        </g>
                    </g>
                </g>
            </g>
        </g>
    </g>
</svg>