<?xml version="1.0" encoding="UTF-8"?>
<svg width="15px" height="14px" viewBox="0 0 15 14" version="1.1" xmlns="http://www.w3.org/2000/svg" xmlns:xlink="http://www.w3.org/1999/xlink">
    <!-- Generator: sketchtool 52 (66869) - http://www.bohemiancoding.com/sketch -->
    <title>4D3842F7-B2FF-4EF3-A07A-C415F33349AA</title>
    <desc>Created with sketchtool.</desc>
    <g id="Page-1" stroke="none" stroke-width="1" fill="none" fill-rule="evenodd">
        <g id="Hermes-Dashboard" transform="translate(-96.000000, -56.000000)" fill="#B8C5D3">
            <g id="Right" transform="translate(80.000000, 0.000000)">
                <g id="Top-HEading">
                    <g id="line-menu" transform="translate(16.000000, 56.000000)">
                        <path d="M1.23820755,2.51179245 C0.530660377,2.51179245 0,1.98113208 0,1.27358491 C0,0.566037736 0.530660377,0 1.23820755,0 L13.7264151,0 C14.4339623,0 15,0.566037736 15,1.27358491 C15,1.98113208 14.4339623,2.51179245 13.7264151,2.51179245 L1.23820755,2.51179245 Z" id="Path"></path>
                        <path d="M13.7264151,5.58962264 C14.4339623,5.58962264 15,6.15566038 15,6.86320755 C15,7.57075472 14.4339623,8.10141509 13.7264151,8.10141509 L1.23820755,8.10141509 C0.530660377,8.10141509 0,7.57075472 0,6.86320755 C0,6.15566038 0.530660377,5.58962264 1.23820755,5.58962264 L13.7264151,5.58962264 Z" id="Path"></path>
                        <path d="M13.7264151,11.2146226 C14.4339623,11.2146226 15,11.745283 15,12.4528302 C15,13.1603774 14.4339623,13.7264151 13.7264151,13.7264151 L1.23820755,13.7264151 C0.530660377,13.7264151 0,13.1603774 0,12.4528302 C0,11.745283 0.530660377,11.2146226 1.23820755,11.2146226 L13.7264151,11.2146226 Z" id="Path"></path>
                    </g>
                </g>
            </g>
        </g>
    </g>
</svg>