<?xml version="1.0" encoding="UTF-8"?>
<svg width="48px" height="48px" viewBox="0 0 48 48" version="1.1" xmlns="http://www.w3.org/2000/svg" xmlns:xlink="http://www.w3.org/1999/xlink">
    <!-- Generator: sketchtool 52 (66869) - http://www.bohemiancoding.com/sketch -->
    <title>CA40F9E9-EBB8-4779-BF5E-7F0F3E570EFB</title>
    <desc>Created with sketchtool.</desc>
    <defs>
        <rect id="path-1" x="0" y="0" width="40" height="40" rx="5"></rect>
        <filter x="-16.2%" y="-13.8%" width="132.5%" height="132.5%" filterUnits="objectBoundingBox" id="filter-2">
            <feOffset dx="0" dy="1" in="SourceAlpha" result="shadowOffsetOuter1"></feOffset>
            <feGaussianBlur stdDeviation="2" in="shadowOffsetOuter1" result="shadowBlurOuter1"></feGaussianBlur>
            <feColorMatrix values="0 0 0 0 0.721568627   0 0 0 0 0.77254902   0 0 0 0 0.82745098  0 0 0 1 0" type="matrix" in="shadowBlurOuter1"></feColorMatrix>
        </filter>
    </defs>
    <g id="Page-1" stroke="none" stroke-width="1" fill="none" fill-rule="evenodd">
        <g id="Hermes-Dashboard" transform="translate(-1025.000000, -42.000000)">
            <g id="Right" transform="translate(80.000000, 0.000000)">
                <g id="Top-HEading">
                    <g id="Group-3" transform="translate(949.000000, 45.000000)">
                        <g id="Bg">
                            <use fill="black" fill-opacity="1" filter="url(#filter-2)" xlink:href="#path-1"></use>
                            <use fill="#FFFFFF" fill-rule="evenodd" xlink:href="#path-1"></use>
                        </g>
                        <path d="M25.5795918,17.0833333 L17.8816327,17.0833333 C18.4612245,16.3416667 18.8122449,15.4 18.8122449,14.375 C18.8122449,13.35 18.4612245,12.4125 17.8816327,11.6666667 L25.5795918,11.6666667 C27.0408163,11.6666667 28.2326531,12.8833333 28.2326531,14.375 C28.2326531,15.8708333 27.0408163,17.0833333 25.5795918,17.0833333 Z M14.5428571,17.0666667 C13.1795918,17.0666667 12.0530612,16.0041667 11.9183673,14.65 C11.9102041,14.5583333 11.9061224,14.4666667 11.9061224,14.375 C11.9061224,14.2833333 11.9102041,14.1916667 11.9183673,14.1 C12.0530612,12.7458333 13.1795918,11.6833333 14.5428571,11.6833333 C15.9959184,11.6833333 17.1795918,12.8916667 17.1795918,14.375 C17.1795918,15.8583333 15.9959184,17.0666667 14.5428571,17.0666667 Z M25.5795918,10 L14.5591837,10 C12.1918367,10 10.2734694,11.9583333 10.2734694,14.375 C10.2734694,16.7916667 12.1918367,18.75 14.5591837,18.75 L25.5795918,18.75 C27.9469388,18.75 29.8653061,16.7916667 29.8653061,14.375 C29.8653061,11.9583333 27.9469388,10 25.5795918,10 Z" id="Fill-221" fill="#B8C5D3"></path>
                        <path d="M11.9061224,25.625 C11.9061224,24.1333333 13.0938776,22.9166667 14.5591837,22.9166667 L22.2530612,22.9166667 C21.6734694,23.6625 21.3265306,24.6 21.3265306,25.625 C21.3265306,26.65 21.6734694,27.5916667 22.2530612,28.3333333 L14.5591837,28.3333333 C13.0938776,28.3333333 11.9061224,27.1208333 11.9061224,25.625 Z M22.9591837,25.625 C22.9591837,24.1416667 24.1428571,22.9333333 25.5959184,22.9333333 C26.9591837,22.9333333 28.0816327,23.9958333 28.2163265,25.35 C28.2285714,25.4416667 28.2326531,25.5333333 28.2326531,25.625 C28.2326531,25.7166667 28.2285714,25.8083333 28.2163265,25.9 C28.0816327,27.2541667 26.9591837,28.3166667 25.5959184,28.3166667 C24.1428571,28.3166667 22.9591837,27.1083333 22.9591837,25.625 Z M10.2734694,25.625 C10.2734694,28.0416667 12.1918367,30 14.5591837,30 L25.5795918,30 C27.9469388,30 29.8653061,28.0416667 29.8653061,25.625 C29.8653061,23.2083333 27.9469388,21.25 25.5795918,21.25 L14.5591837,21.25 C12.1918367,21.25 10.2734694,23.2083333 10.2734694,25.625 Z" id="Fill-222" fill="#B8C5D3"></path>
                    </g>
                </g>
            </g>
        </g>
    </g>
</svg>