<?xml version="1.0" encoding="UTF-8"?>
<svg width="20px" height="20px" viewBox="0 0 20 20" version="1.1" xmlns="http://www.w3.org/2000/svg" xmlns:xlink="http://www.w3.org/1999/xlink">
    <!-- Generator: sketchtool 52 (66869) - http://www.bohemiancoding.com/sketch -->
    <title>09330A26-1B31-408F-95E5-565F14931F41</title>
    <desc>Created with sketchtool.</desc>
    <g id="Page-1" stroke="none" stroke-width="1" fill="none" fill-rule="evenodd">
        <g id="Hermes-Dashboard" transform="translate(-568.000000, -54.000000)" fill="#B8C5D3">
            <g id="Right" transform="translate(80.000000, 0.000000)">
                <g id="Top-HEading">
                    <g id="Stats" transform="translate(488.000000, 54.000000)">
                        <path d="M3.53755102,15.4166667 L4.6922449,15.4166667 L4.6922449,12.5 L3.53755102,12.5 L3.53755102,15.4166667 Z M5.50857143,17.0833333 L2.72122449,17.0833333 C2.27020408,17.0833333 1.90489796,16.7125 1.90489796,16.25 L1.90489796,11.6666667 C1.90489796,11.2083333 2.27020408,10.8333333 2.72122449,10.8333333 L5.50857143,10.8333333 C5.95918367,10.8333333 6.32489796,11.2083333 6.32489796,11.6666667 L6.32489796,16.25 C6.32489796,16.7125 5.95918367,17.0833333 5.50857143,17.0833333 Z" id="Fill-312"></path>
                        <path d="M9.49061224,15.4166667 L10.6453061,15.4166667 L10.6453061,7.08333333 L9.49061224,7.08333333 L9.49061224,15.4166667 Z M11.4616327,17.0833333 L8.67428571,17.0833333 C8.22367347,17.0833333 7.85795918,16.7125 7.85795918,16.25 L7.85795918,6.25 C7.85795918,5.79166667 8.22367347,5.41666667 8.67428571,5.41666667 L11.4616327,5.41666667 C11.9126531,5.41666667 12.2779592,5.79166667 12.2779592,6.25 L12.2779592,16.25 C12.2779592,16.7125 11.9126531,17.0833333 11.4616327,17.0833333 Z" id="Fill-313"></path>
                        <path d="M15.4440816,15.4166667 L16.5987755,15.4166667 L16.5987755,1.66666667 L15.4440816,1.66666667 L15.4440816,15.4166667 Z M17.415102,17.0833333 L14.6277551,17.0833333 C14.1771429,17.0833333 13.8114286,16.7125 13.8114286,16.25 L13.8114286,0.833333333 C13.8114286,0.375 14.1771429,0 14.6277551,0 L17.415102,0 C17.8657143,0 18.2314286,0.375 18.2314286,0.833333333 L18.2314286,16.25 C18.2314286,16.7125 17.8657143,17.0833333 17.415102,17.0833333 Z" id="Fill-314"></path>
                        <path d="M19.0477551,20 L1.08857143,20 C0.637959184,20 0.272244898,19.6291667 0.272244898,19.1666667 C0.272244898,18.7083333 0.637959184,18.3333333 1.08857143,18.3333333 L19.0477551,18.3333333 C19.4983673,18.3333333 19.8640816,18.7083333 19.8640816,19.1666667 C19.8640816,19.6291667 19.4983673,20 19.0477551,20" id="Fill-315"></path>
                    </g>
                </g>
            </g>
        </g>
    </g>
</svg>